<?xml version="1.0" encoding="UTF-8" standalone="no"?>
<!-- Created with Inkscape (http://www.inkscape.org/) -->

<svg
   version="1.1"
   id="svg1"
   width="980"
   height="1136"
   viewBox="0 0 980 1136"
   sodipodi:docname="educ159.svg"
   xml:space="preserve"
   inkscape:version="1.3 (0e150ed6c4, 2023-07-21)"
   xmlns:inkscape="http://www.inkscape.org/namespaces/inkscape"
   xmlns:sodipodi="http://sodipodi.sourceforge.net/DTD/sodipodi-0.dtd"
   xmlns:xlink="http://www.w3.org/1999/xlink"
   xmlns="http://www.w3.org/2000/svg"
   xmlns:svg="http://www.w3.org/2000/svg"><defs
     id="defs1"><clipPath
       clipPathUnits="userSpaceOnUse"
       id="clipPath3"><path
         d="M 2.9,637.9 V 215.7 L 369.599,7.3 728.3,215.7 V 637.9 L 369.599,845 Z"
         transform="translate(-365.60011,-857.00002)"
         id="path3" /></clipPath><clipPath
       clipPathUnits="userSpaceOnUse"
       id="clipPath24"><path
         d="M 0,852 H 735 V 0 H 0 Z"
         transform="translate(-261.01861,-248.4697)"
         id="path24" /></clipPath><clipPath
       clipPathUnits="userSpaceOnUse"
       id="clipPath26"><path
         d="M 0,852 H 735 V 0 H 0 Z"
         transform="translate(-561.17482,-248.4697)"
         id="path26" /></clipPath><clipPath
       clipPathUnits="userSpaceOnUse"
       id="clipPath28"><path
         d="M 0,852 H 735 V 0 H 0 Z"
         transform="translate(-406.35641,-137.91111)"
         id="path28" /></clipPath><clipPath
       clipPathUnits="userSpaceOnUse"
       id="clipPath30"><path
         d="M 0,852 H 735 V 0 H 0 Z"
         transform="translate(-406.64651,-398.58401)"
         id="path30" /></clipPath><clipPath
       clipPathUnits="userSpaceOnUse"
       id="clipPath32"><path
         d="M 0,852 H 735 V 0 H 0 Z"
         transform="translate(-135.5176,-360.13671)"
         id="path32" /></clipPath><clipPath
       clipPathUnits="userSpaceOnUse"
       id="clipPath34"><path
         d="M 0,852 H 735 V 0 H 0 Z"
         transform="translate(-677.77541,-360.13671)"
         id="path34" /></clipPath><clipPath
       clipPathUnits="userSpaceOnUse"
       id="clipPath36"><path
         d="M 2.8,637.9 V 215.7 L 369.5,7.3 728.2,215.7 V 637.9 L 369.5,845 Z"
         transform="translate(-365.49998,-857.00002)"
         id="path36" /></clipPath><clipPath
       clipPathUnits="userSpaceOnUse"
       id="clipPath57"><path
         d="M 0,852 H 735 V 0 H 0 Z"
         transform="translate(-266.44733,-367.14161)"
         id="path57" /></clipPath><clipPath
       clipPathUnits="userSpaceOnUse"
       id="clipPath59"><path
         d="M 0,852 H 735 V 0 H 0 Z"
         transform="translate(-582.72849,-367.14161)"
         id="path59" /></clipPath><clipPath
       clipPathUnits="userSpaceOnUse"
       id="clipPath61"><path
         d="M 0,852 H 735 V 0 H 0 Z"
         transform="translate(-418.45614,-205.498)"
         id="path61" /></clipPath><clipPath
       clipPathUnits="userSpaceOnUse"
       id="clipPath63"><path
         d="M 0,852 H 735 V 0 H 0 Z"
         transform="translate(-417.37299,-615.86432)"
         id="path63" /></clipPath><clipPath
       clipPathUnits="userSpaceOnUse"
       id="clipPath65"><path
         d="M 0,852 H 735 V 0 H 0 Z"
         transform="translate(-156.60638,-540.53122)"
         id="path65" /></clipPath><clipPath
       clipPathUnits="userSpaceOnUse"
       id="clipPath67"><path
         d="M 0,852 H 735 V 0 H 0 Z"
         transform="translate(-674.63184,-540.53122)"
         id="path67" /></clipPath><clipPath
       clipPathUnits="userSpaceOnUse"
       id="clipPath69"><path
         d="m -404.303,844.197 358.7,-207.1 v -422.2 l -358.7,-208.4 -366.7,208.4 v 422.2 z"
         transform="translate(408.30324,-856.19682)"
         id="path69" /></clipPath><clipPath
       clipPathUnits="userSpaceOnUse"
       id="clipPath71"><path
         d="M 60.497,637.096 V 214.897 l 366.7,-208.4 358.7,208.4 v 422.199 l -358.7,207.1 z"
         transform="translate(-423.19681,-856.19682)"
         id="path71" /></clipPath><clipPath
       clipPathUnits="userSpaceOnUse"
       id="clipPath92"><path
         d="M 0,850.394 H 850.394 V 0 H 0 Z"
         transform="translate(-324.14408,-366.33841)"
         id="path92" /></clipPath><clipPath
       clipPathUnits="userSpaceOnUse"
       id="clipPath94"><path
         d="M 0,850.394 H 850.394 V 0 H 0 Z"
         transform="translate(-640.42539,-366.33841)"
         id="path94" /></clipPath><clipPath
       clipPathUnits="userSpaceOnUse"
       id="clipPath96"><path
         d="M 0,850.394 H 850.394 V 0 H 0 Z"
         transform="translate(-476.15289,-204.69491)"
         id="path96" /></clipPath><clipPath
       clipPathUnits="userSpaceOnUse"
       id="clipPath98"><path
         d="M 0,850.394 H 850.394 V 0 H 0 Z"
         transform="translate(-475.06989,-615.06112)"
         id="path98" /></clipPath><clipPath
       clipPathUnits="userSpaceOnUse"
       id="clipPath100"><path
         d="M 0,850.394 H 850.394 V 0 H 0 Z"
         transform="translate(-214.30328,-539.72811)"
         id="path100" /></clipPath><clipPath
       clipPathUnits="userSpaceOnUse"
       id="clipPath102"><path
         d="M 0,850.394 H 850.394 V 0 H 0 Z"
         transform="translate(-732.32874,-539.72811)"
         id="path102" /></clipPath><clipPath
       clipPathUnits="userSpaceOnUse"
       id="clipPath105"><path
         d="M 60.745,624.687 V 235.904 L 398.421,43.998 728.731,235.904 v 388.783 l -330.31,190.709 z"
         transform="translate(-394.73831,-826.44502)"
         id="path105" /></clipPath><clipPath
       clipPathUnits="userSpaceOnUse"
       id="clipPath128"><path
         d="M 0,852.094 H 1704.189 V 0 H 0 Z"
         transform="translate(-303.52443,-375.35901)"
         id="path128" /></clipPath><clipPath
       clipPathUnits="userSpaceOnUse"
       id="clipPath130"><path
         d="M 0,852.094 H 1704.189 V 0 H 0 Z"
         transform="translate(-594.77344,-375.35901)"
         id="path130" /></clipPath><clipPath
       clipPathUnits="userSpaceOnUse"
       id="clipPath132"><path
         d="M 0,852.094 H 1704.189 V 0 H 0 Z"
         transform="translate(-443.50294,-226.5104)"
         id="path132" /></clipPath><clipPath
       clipPathUnits="userSpaceOnUse"
       id="clipPath134"><path
         d="M 0,852.094 H 1704.189 V 0 H 0 Z"
         transform="translate(-442.50491,-604.39521)"
         id="path134" /></clipPath><clipPath
       clipPathUnits="userSpaceOnUse"
       id="clipPath136"><path
         d="M 0,852.094 H 1704.189 V 0 H 0 Z"
         transform="translate(-202.37793,-535.02512)"
         id="path136" /></clipPath><clipPath
       clipPathUnits="userSpaceOnUse"
       id="clipPath138"><path
         d="M 0,852.094 H 1704.189 V 0 H 0 Z"
         transform="translate(-679.40142,-535.02512)"
         id="path138" /></clipPath><pattern
       id="EMFhbasepattern"
       patternUnits="userSpaceOnUse"
       width="6"
       height="6"
       x="0"
       y="0" /></defs><sodipodi:namedview
     id="namedview1"
     pagecolor="#505050"
     bordercolor="#ffffff"
     borderopacity="1"
     inkscape:showpageshadow="0"
     inkscape:pageopacity="0"
     inkscape:pagecheckerboard="1"
     inkscape:deskcolor="#505050"
     inkscape:zoom="0.35959507"
     inkscape:cx="3922.4676"
     inkscape:cy="365.68911"
     inkscape:window-width="1920"
     inkscape:window-height="1094"
     inkscape:window-x="-11"
     inkscape:window-y="-11"
     inkscape:window-maximized="1"
     inkscape:current-layer="layer-MC1"><inkscape:page
       x="0"
       y="0"
       inkscape:label="1"
       id="page1"
       width="980"
       height="1136"
       margin="0"
       bleed="0" /><inkscape:page
       x="1000"
       y="0"
       inkscape:label="2"
       id="page34"
       width="980"
       height="1136" /><inkscape:page
       x="2000"
       y="0"
       inkscape:label="3"
       id="page67"
       width="1133.8587"
       height="1133.8587" /><inkscape:page
       x="3153.8587"
       y="0"
       inkscape:label="4"
       id="page102"
       width="2272.2533"
       height="1136.1253"
       inkscape:export-filename="4.png"
       inkscape:export-xdpi="96"
       inkscape:export-ydpi="96" /></sodipodi:namedview><g
     id="layer-MC0"
     inkscape:groupmode="layer"
     inkscape:label="Layer 5"><path
       id="path103"
       d="M 0,0 H 1704.189 V 852.095 H 0 Z"
       style="fill:#ffffff;fill-opacity:1;fill-rule:nonzero;stroke:none"
       transform="matrix(1.3333333,0,0,-1.3333333,3153.8587,1136.1253)" /></g><g
     id="layer-MC1"
     inkscape:groupmode="layer"
     inkscape:label="Layer 1"><path
       id="path1"
       d="M 0,0 -0.599,-0.899 0.301,0 Z"
       style="fill:#dea449;fill-opacity:1;fill-rule:nonzero;stroke:none"
       transform="matrix(1.3333333,0,0,-1.3333333,225.066,895.6004)" /><path
       id="path2"
       d="m 0,0 c 244.165,0 442.1,-197.935 442.1,-442.1 0,-244.165 -197.935,-442.1 -442.1,-442.1 -244.165,0 -442.1,197.935 -442.1,442.1 C -442.1,-197.935 -244.165,0 0,0"
       style="fill:#f2e9c2;fill-opacity:1;fill-rule:nonzero;stroke:none"
       transform="matrix(1.3333333,0,0,-1.3333333,487.4668,-6.6666667)"
       clip-path="url(#clipPath3)" /><path
       id="path4"
       d="m 0,0 -277.799,-160.4 -29.301,-16.9 v -424.2 l 29.301,-16.9 281.199,-162.399 56.901,-32.8 56.9,32.8 281.199,162.399 29.301,16.9 v 424.2 L 398.4,-160.3 120.601,0 60.301,34.9 Z M -277.799,-585.599 V -195.2 L 60.301,0 398.4,-195.2 v -390.399 l -338.099,-195.2 z"
       style="fill:#ffd200;fill-opacity:1;fill-rule:nonzero;stroke:none"
       transform="matrix(1.3333333,0,0,-1.3333333,409.7328,47.3336)" /><path
       id="path5"
       d="M 0,0 -0.6,-0.901 0.3,0 Z"
       style="fill:#dea449;fill-opacity:1;fill-rule:nonzero;stroke:none"
       transform="matrix(1.3333333,0,0,-1.3333333,490.2672,803.9996)" /><path
       id="path6"
       d="M 0,0 84.638,86.271"
       style="fill:none;stroke:#666666;stroke-width:4;stroke-linecap:butt;stroke-linejoin:miter;stroke-miterlimit:10;stroke-dasharray:none;stroke-opacity:1"
       transform="matrix(1.3333333,0,0,-1.3333333,349.45827,761.85813)" /><path
       id="path7"
       d="M 0,0 20.812,-20.418 0.2,-20.612 Z"
       style="fill:#666666;fill-opacity:1;fill-rule:nonzero;stroke:none"
       transform="matrix(1.3333333,0,0,-1.3333333,337.40827,746.38547)" /><path
       id="path8"
       d="M 0,0 182.055,35.999"
       style="fill:none;stroke:#666666;stroke-width:4;stroke-linecap:butt;stroke-linejoin:miter;stroke-miterlimit:10;stroke-dasharray:none;stroke-opacity:1"
       transform="matrix(1.3333333,0,0,-1.3333333,197.1972,652.55333)" /><path
       id="path9"
       d="M 0,0 5.656,-28.603 -11.47,-17.128 Z"
       style="fill:#666666;fill-opacity:1;fill-rule:nonzero;stroke:none"
       transform="matrix(1.3333333,0,0,-1.3333333,195.98307,632.98053)" /><path
       id="path10"
       d="M 0,0 57.552,-53.886"
       style="fill:none;stroke:#666666;stroke-width:4;stroke-linecap:butt;stroke-linejoin:miter;stroke-miterlimit:10;stroke-dasharray:none;stroke-opacity:1"
       transform="matrix(1.3333333,0,0,-1.3333333,179.38147,702.0208)" /><path
       id="path11"
       d="m 0,0 -19.927,-21.283 -0.676,20.602 z"
       style="fill:#666666;fill-opacity:1;fill-rule:nonzero;stroke:none"
       transform="matrix(1.3333333,0,0,-1.3333333,194.56907,689.61333)" /><path
       id="path12"
       d="M 0,0 -76.454,58.546"
       style="fill:none;stroke:#666666;stroke-width:4;stroke-linecap:butt;stroke-linejoin:miter;stroke-miterlimit:10;stroke-dasharray:none;stroke-opacity:1"
       transform="matrix(1.3333333,0,0,-1.3333333,429.55733,923.638)" /><path
       id="path13"
       d="M 0,0 17.727,23.149 20.435,2.714 Z"
       style="fill:#666666;fill-opacity:1;fill-rule:nonzero;stroke:none"
       transform="matrix(1.3333333,0,0,-1.3333333,415.67053,937.48693)" /><path
       id="path14"
       d="M 0,0 -86.759,-58.267"
       style="fill:none;stroke:#666666;stroke-width:4;stroke-linecap:butt;stroke-linejoin:miter;stroke-miterlimit:10;stroke-dasharray:none;stroke-opacity:1"
       transform="matrix(1.3333333,0,0,-1.3333333,654.11973,856.17973)" /><path
       id="path15"
       d="M 0,0 -16.255,24.204 3.972,20.228 Z"
       style="fill:#666666;fill-opacity:1;fill-rule:nonzero;stroke:none"
       transform="matrix(1.3333333,0,0,-1.3333333,662.79293,873.76947)" /><path
       id="path16"
       d="M 0,0 182.055,-35.999"
       style="fill:none;stroke:#666666;stroke-width:4;stroke-linecap:butt;stroke-linejoin:miter;stroke-miterlimit:10;stroke-dasharray:none;stroke-opacity:1"
       transform="matrix(1.3333333,0,0,-1.3333333,558.70187,607.81907)" /><path
       id="path17"
       d="m 0,0 -5.656,-28.603 -11.47,17.129 z"
       style="fill:#666666;fill-opacity:1;fill-rule:nonzero;stroke:none"
       transform="matrix(1.3333333,0,0,-1.3333333,565.03,589.25653)" /><path
       id="path18"
       d="M 0,0 -93.139,86.681"
       style="fill:none;stroke:#666666;stroke-width:4;stroke-linecap:butt;stroke-linejoin:miter;stroke-miterlimit:10;stroke-dasharray:none;stroke-opacity:1"
       transform="matrix(1.3333333,0,0,-1.3333333,644.00787,762.40493)" /><path
       id="path19"
       d="M 0,0 19.863,21.344 20.601,0.743 Z"
       style="fill:#666666;fill-opacity:1;fill-rule:nonzero;stroke:none"
       transform="matrix(1.3333333,0,0,-1.3333333,628.85813,774.85933)" /><path
       id="path20"
       d="M 0,0 -210.844,-0.001"
       style="fill:none;stroke:#666666;stroke-width:4;stroke-linecap:butt;stroke-linejoin:miter;stroke-miterlimit:10;stroke-dasharray:none;stroke-opacity:1"
       transform="matrix(1.3333333,0,0,-1.3333333,629.14973,804.70573)" /><path
       id="path21"
       d="M 0,0 V 29.156 L 14.575,14.578 Z"
       style="fill:#666666;fill-opacity:1;fill-rule:nonzero;stroke:none"
       transform="matrix(1.3333333,0,0,-1.3333333,626.54293,824.1432)" /><path
       id="path35"
       d="m 0,0 c 244.165,0 442.1,-197.935 442.1,-442.1 0,-244.165 -197.935,-442.1 -442.1,-442.1 -244.165,0 -442.1,197.935 -442.1,442.1 C -442.1,-197.935 -244.165,0 0,0"
       style="fill:#f2e9c2;fill-opacity:1;fill-rule:nonzero;stroke:none"
       transform="matrix(1.3333333,0,0,-1.3333333,1487.3333,-6.6666667)"
       clip-path="url(#clipPath36)" /><path
       id="path37"
       d="m 0,0 -277.8,-160.4 -29.301,-16.9 v -424.2 l 29.301,-16.9 281.199,-162.399 56.9,-32.8 56.901,32.8 281.199,162.399 29.301,16.9 v 424.2 l -29.301,17 L 120.599,0 60.299,34.9 Z M -277.8,-585.599 V -195.2 L 60.299,0 l 338.1,-195.2 v -390.399 l -338.1,-195.2 z"
       style="fill:#ffd200;fill-opacity:1;fill-rule:nonzero;stroke:none"
       transform="matrix(1.3333333,0,0,-1.3333333,1409.6008,47.3336)" /><path
       id="path68"
       d="m 0,0 c 244.165,0 442.1,-197.935 442.1,-442.1 0,-244.165 -197.935,-442.1 -442.1,-442.1 -244.165,0 -442.1,197.935 -442.1,442.1 C -442.1,-197.935 -244.165,0 0,0"
       style="fill:#f2e9c2;fill-opacity:1;fill-rule:nonzero;stroke:none"
       transform="matrix(1.3333333,0,0,-1.3333333,1455.5957,-7.7370667)"
       clip-path="url(#clipPath69)" /><path
       id="path70"
       d="m 0,0 c 244.165,0 442.1,-197.935 442.1,-442.1 0,-244.165 -197.935,-442.1 -442.1,-442.1 -244.165,0 -442.1,197.935 -442.1,442.1 C -442.1,-197.935 -244.165,0 0,0"
       style="fill:#f2e9c2;fill-opacity:1;fill-rule:nonzero;stroke:none"
       transform="matrix(1.3333333,0,0,-1.3333333,2564.2624,-7.7370667)"
       clip-path="url(#clipPath71)" /><path
       id="path72"
       d="m 0,0 -59.95,-34.697 -277.8,-160.4 -29.301,-16.9 v -424.2 l 29.301,-16.901 281.199,-162.399 56.901,-32.8 56.901,32.8 281.198,162.399 29.302,16.901 v 424.2 l -29.302,17 L 60.65,-34.697 0.7,0 Z m -337.75,-620.296 v 390.399 l 338.1,195.2 338.099,-195.2 V -620.296 L 0.35,-815.497 Z"
       style="fill:#ffd200;fill-opacity:1;fill-rule:nonzero;stroke:none"
       transform="matrix(1.3333333,0,0,-1.3333333,2566.4627,2.6666667e-4)" /><image
       width="903"
       height="1042"
       preserveAspectRatio="none"
       xlink:href="../../../../Desktop/educ159-small-hex.png"
       id="image1"
       x="3308.2844"
       y="54.647484" /></g><g
     id="layer-MC2"
     inkscape:groupmode="layer"
     inkscape:label="Layer 2" /><g
     id="layer-MC3"
     inkscape:groupmode="layer"
     inkscape:label="Layer 3" /><g
     id="layer-MC4"
     inkscape:groupmode="layer"
     inkscape:label="Layer 4"><path
       id="path22"
       d="M 8.4970594,4.515625e-4 H 20.497059 V -26.495642 h 17.097657 c 16.804687,0 23.507812,-11.800781 23.507812,-21.796875 0,-10.699219 -6.105469,-21.703125 -23.507812,-21.703125 H 8.4970594 Z M 38.204091,-37.897986 H 20.497059 v -20.695312 h 17.707032 c 8.191406,0 10.5,5.894531 10.5,10.300781 0,4.898437 -2.800782,10.394531 -10.5,10.394531 z M 71.098622,4.515625e-4 H 82.793934 V -28.593298 c 0,-9.703125 5.109375,-12.199219 9.609375,-12.199219 3.890625,0 6.597657,1.195312 8.695311,2.695312 l 1.69922,-10.699218 c -2.60156,-2.203125 -5.695312,-3.503907 -9.503906,-3.503907 -5.097656,0 -8.496093,2.296875 -10.5,6.503907 v -5.296875 H 71.098622 Z M 131.99511,1.1957641 c 14.40234,0 23.50781,-9.890625 23.50781,-26.6953121 0,-16.699219 -9.10547,-26.800782 -23.50781,-26.800782 -14.29688,0 -23.39063,10.101563 -23.39063,26.800782 0,16.8046871 9.09375,26.6953121 23.39063,26.6953121 z m 0,-11.1914063 c -7.08985,0 -11.69532,-5.8007808 -11.69532,-15.5039058 0,-9.703125 4.60547,-15.703125 11.69532,-15.703125 7.30078,0 11.80078,6 11.80078,15.703125 0,9.703125 -4.5,15.5039058 -11.80078,15.5039058 z M 185.80175,20.004358 C 203.40331,18.703577 209.8955,11.801233 209.8955,-5.0972047 V -51.093298 h -11.69532 v 3.09375 c -2.40234,-2.402344 -6.19921,-4.300782 -11.49609,-4.300782 -12.50391,0 -21.19922,10.007813 -21.19922,26.707032 0,17.7890621 9.09375,26.7890621 21.09375,26.7890621 4.60547,0 8.60156,-1.30078129 11.60156,-4.59375 v 2.89453121 c 0,6.90234379 -4.19531,10.10156249 -18.59765,11.09765669 z m 2.80078,-30.0000002 c -7.30078,0 -11.40235,-6.1992188 -11.40235,-15.5976558 0,-10.101563 4.10157,-15.609375 11.40235,-15.609375 4.5,0 7.79297,2.402343 9.59765,5.003906 v 21.199219 c -2.09765,3.199218 -5.40234,5.0039058 -9.59765,5.0039058 z m 36.29883,9.9960937625 h 11.69531 V -28.593298 c 0,-9.703125 5.10937,-12.199219 9.60937,-12.199219 3.89063,0 6.59766,1.195312 8.69532,2.695312 l 1.69921,-10.699218 c -2.60156,-2.203125 -5.69531,-3.503907 -9.5039,-3.503907 -5.09766,0 -8.4961,2.296875 -10.5,6.503907 v -5.296875 h -11.69531 z m 68.38769,0 H 304.6914 V -32.89408 c 0,-17.203125 -11.20313,-19.40625 -20.20313,-19.40625 -8.60156,0 -15.39844,2.507813 -19.99219,5.601563 l 3.59766,9.503906 c 4.30078,-3 9,-4.804687 15.19922,-4.804687 6.6914,0 9.99609,2.601562 9.99609,9.304687 v 2.695313 c -3.19922,-1.792969 -7.30078,-2.695313 -12.09375,-2.695313 -10.10156,0 -20.0039,5.097656 -20.0039,16.898438 0,11.1914058 8.0039,16.9921871 18.5039,16.9921871 6.79688,0 11.09766,-2.6953125 13.59375,-5.296875 z M 281.88671,-9.1050172 c -6.09375,0 -9.29297,-2.6953128 -9.29297,-6.6914058 0,-4.898438 4.69922,-6.902344 10.5,-6.902344 3.79687,0 7.5,0.796875 10.19531,2.097656 v 6.597656 c -2.60156,2.707032 -6.39844,4.8984378 -11.40234,4.8984378 z m 96.80273,9.1054687625 h 11.69531 V -32.601111 c 0,-14.402344 -8.09765,-19.699219 -18.70312,-19.699219 -6.59766,0 -11.98828,2.203125 -15.39844,7.207032 -2.69531,-4.910157 -7.30078,-7.207032 -13.39453,-7.207032 -5.29687,0 -9.59766,2.003907 -12.50391,5.90625 v -4.699218 H 318.68944 V 4.515625e-4 h 11.69531 V -29.097205 c 0,-8.203125 3.8086,-12.105468 9.60938,-12.105468 5.98828,0 8.69531,3.902343 8.69531,11.90625 V 4.515625e-4 h 11.69531 V -29.097205 c 0,-8.203125 3.70313,-12.105468 9.59766,-12.105468 6,0 8.70703,3.902343 8.70703,11.90625 z M -14.10548,111.19674 c 8.2031253,0 14.20312531,-3.19922 18.1992191,-7.99219 l -7.3945313,-7.605466 c -2.6953125,3.597657 -6.3046875,5.296876 -10.8046878,5.296876 -6.09375,0 -11.589843,-4.488282 -12,-11.988282 H 7.7968641 c 0.3046875,-2.308594 0.3984375,-5.109375 0.3984375,-7.207031 0,-16.394531 -9.9960938,-24 -22.3007816,-24 -14.296875,0 -23.589843,10.007812 -23.589843,26.707031 0,16.792972 9.09375,26.789062 23.589843,26.789062 z M -26.000011,79.204553 c 0.597656,-8.003906 5.601563,-11.203125 11.894531,-11.203125 5.3085941,0 10.2070316,3.398438 10.6992191,11.203125 z M 33.399403,110.00143 H 45.000966 L 63.692372,58.907678 H 51.797841 L 40.700184,90.806116 c -0.597656,1.59375 -0.996093,3 -1.40625,4.59375 -0.398437,-1.59375 -0.890625,-3 -1.394531,-4.59375 L 26.602528,58.907678 h -11.90625 z m 68.598637,0 h 11.40234 V 77.106897 c 0,-17.203125 -11.20313,-19.40625 -20.203125,-19.40625 -8.601563,0 -15.398438,2.507812 -19.992188,5.601562 l 3.597656,9.503907 c 4.300782,-3 9,-4.804688 15.199219,-4.804688 6.691406,0 9.996098,2.601563 9.996098,9.304688 v 2.695312 c -3.199223,-1.792969 -7.300785,-2.695312 -12.093754,-2.695312 -10.101563,0 -20.003906,5.097656 -20.003906,16.898437 0,11.191407 8.003906,16.992187 18.503906,16.992187 6.796875,0 11.097656,-2.69531 13.593754,-5.29687 z m -11.402348,-9.10547 c -6.09375,0 -9.292969,-2.695313 -9.292969,-6.691407 0,-4.898437 4.699219,-6.902344 10.5,-6.902344 3.796875,0 7.5,0.796875 10.195317,2.097657 v 6.597656 c -2.601567,2.707031 -6.398442,4.898438 -11.402348,4.898438 z m 37.309568,9.10547 h 11.69531 V 37.802209 l -11.69531,5.496094 z m 58.29492,0 H 197.8955 V 58.907678 h -11.69532 v 29.390625 c 0,8.507813 -4.10156,11.707027 -10.30078,11.707027 -6,0 -9.59765,-3.503902 -9.59765,-11.906246 V 58.907678 h -11.70703 v 31.289063 c 0,15.609379 8.50781,20.999999 18.19921,20.999999 5.70704,0 10.20704,-1.99219 13.40625,-6.09375 z m 55.79883,0 h 11.40235 V 77.106897 c 0,-17.203125 -11.20313,-19.40625 -20.20313,-19.40625 -8.60156,0 -15.39844,2.507812 -19.99219,5.601562 l 3.59766,9.503907 c 4.30078,-3 9,-4.804688 15.19922,-4.804688 6.6914,0 9.99609,2.601563 9.99609,9.304688 v 2.695312 c -3.19922,-1.792969 -7.30078,-2.695312 -12.09375,-2.695312 -10.10156,0 -20.0039,5.097656 -20.0039,16.898437 0,11.191407 8.0039,16.992187 18.5039,16.992187 6.79688,0 11.09766,-2.69531 13.59375,-5.29687 z m -11.40234,-9.10547 c -6.09375,0 -9.29297,-2.695313 -9.29297,-6.691407 0,-4.898437 4.69922,-6.902344 10.5,-6.902344 3.79687,0 7.5,0.796875 10.19531,2.097657 v 6.597656 c -2.60156,2.707031 -6.39844,4.898438 -11.40234,4.898438 z m 51.80273,10.30078 c 4.19532,0 7.80469,-0.79687 10.69922,-2.29687 l 1.39453,-10.500004 c -2.69531,1.5 -5.39062,2.296874 -7.99218,2.296874 -3.10547,0 -4.30079,-1.992187 -4.30079,-4.898437 V 69.102991 h 11.80079 V 58.907678 H 282.20018 V 37.802209 l -11.70703,5.601563 v 15.503906 h -7.59375 v 10.195313 h 7.59375 v 29.003906 c 0,8.097653 3.50391,13.089843 11.90625,13.089843 z m 29.60157,-59.296874 c 3.90234,0 6.90234,-3.09375 6.90234,-6.996094 0,-3.796875 -3,-6.902344 -6.90234,-6.902344 -3.90235,0 -6.9961,3.105469 -6.9961,6.902344 0,3.902344 3.09375,6.996094 6.9961,6.996094 z m -5.89454,58.101564 h 11.69532 V 58.907678 h -11.69532 z m 47.68946,1.19531 c 14.40234,0 23.50781,-9.89062 23.50781,-26.695312 0,-16.699219 -9.10547,-26.800781 -23.50781,-26.800781 -14.29688,0 -23.39063,10.101562 -23.39063,26.800781 0,16.804692 9.09375,26.695312 23.39063,26.695312 z m 0,-11.19141 c -7.08985,0 -11.69532,-5.800777 -11.69532,-15.503902 0,-9.703125 4.60547,-15.703125 11.69532,-15.703125 7.30078,0 11.80078,6 11.80078,15.703125 0,9.703125 -4.5,15.503902 -11.80078,15.503902 z m 67.59668,9.9961 H 433.0996 V 78.606897 c 0,-15.609375 -8.40235,-20.90625 -18.10547,-20.90625 -5.80078,0 -10.19531,2.003906 -13.5,6 v -4.792969 h -11.69531 v 51.093752 h 11.69531 V 80.505334 c 0,-8.402343 4.10156,-11.707031 10.40625,-11.707031 5.89453,0 9.49219,3.503906 9.49219,11.90625 z m 0,0"
       style="fill:#480b6a;fill-opacity:1;fill-rule:nonzero;stroke:none"
       aria-label="Program&#10;evaluation"
       transform="matrix(1.3333333,0,0,1.3333333,235.1784,356.72987)" /><path
       id="path23"
       d="m 0,0 c 0,-21.178 -17.168,-38.347 -38.347,-38.347 -21.178,0 -38.346,17.169 -38.346,38.347 0,21.179 17.168,38.348 38.346,38.348 C -17.168,38.348 0,21.179 0,0"
       style="fill:#771c6d;fill-opacity:1;fill-rule:nonzero;stroke:none"
       transform="matrix(1.3333333,0,0,-1.3333333,348.0248,804.70707)"
       clip-path="url(#clipPath24)" /><path
       id="path25"
       d="m 0,0 c 0,-21.178 -17.169,-38.347 -38.347,-38.347 -21.178,0 -38.347,17.169 -38.347,38.347 0,21.179 17.169,38.348 38.347,38.348 C -17.169,38.348 0,21.179 0,0"
       style="fill:#cf4446;fill-opacity:1;fill-rule:nonzero;stroke:none"
       transform="matrix(1.3333333,0,0,-1.3333333,748.23307,804.70707)"
       clip-path="url(#clipPath26)" /><path
       id="path27"
       d="m 0,0 c 0,-21.179 -17.168,-38.347 -38.347,-38.347 -21.178,0 -38.347,17.168 -38.347,38.347 0,21.179 17.169,38.347 38.347,38.347 C -17.168,38.347 0,21.179 0,0"
       style="fill:#f4c500;fill-opacity:1;fill-rule:nonzero;stroke:none"
       transform="matrix(1.3333333,0,0,-1.3333333,541.80853,952.11853)"
       clip-path="url(#clipPath28)" /><path
       id="path29"
       d="m 0,0 c 0,-21.179 -17.169,-38.347 -38.347,-38.347 -21.178,0 -38.347,17.168 -38.347,38.347 0,21.179 17.169,38.347 38.347,38.347 C -17.169,38.347 0,21.179 0,0"
       style="fill:#f4c500;fill-opacity:1;fill-rule:nonzero;stroke:none"
       transform="matrix(1.3333333,0,0,-1.3333333,542.19533,604.55467)"
       clip-path="url(#clipPath30)" /><path
       id="path31"
       d="m 0,0 c 0,-21.179 -17.168,-38.347 -38.347,-38.347 -21.178,0 -38.346,17.168 -38.346,38.347 0,21.178 17.168,38.347 38.346,38.347 C -17.168,38.347 0,21.178 0,0"
       style="fill:#f4c500;fill-opacity:1;fill-rule:nonzero;stroke:none"
       transform="matrix(1.3333333,0,0,-1.3333333,180.69013,655.81773)"
       clip-path="url(#clipPath32)" /><path
       id="path33"
       d="m 0,0 c 0,-21.179 -17.169,-38.347 -38.347,-38.347 -21.178,0 -38.347,17.168 -38.347,38.347 0,21.178 17.169,38.347 38.347,38.347 C -17.169,38.347 0,21.178 0,0"
       style="fill:#f4c500;fill-opacity:1;fill-rule:nonzero;stroke:none"
       transform="matrix(1.3333333,0,0,-1.3333333,903.70053,655.81773)"
       clip-path="url(#clipPath34)" /><path
       id="path38"
       d="M 0,0 -0.601,-0.901 0.3,0 Z"
       style="fill:#dea449;fill-opacity:1;fill-rule:nonzero;stroke:none"
       transform="matrix(1.3333333,0,0,-1.3333333,1224.934,696.9008)" /><path
       id="path39"
       d="M 0,0 -0.599,-0.9 0.301,0 Z"
       style="fill:#dea449;fill-opacity:1;fill-rule:nonzero;stroke:none"
       transform="matrix(1.3333333,0,0,-1.3333333,1490.1328,605.3012)" /><path
       id="path40"
       d="M 0,0 82.544,162.882"
       style="fill:none;stroke:#666666;stroke-width:4;stroke-linecap:butt;stroke-linejoin:miter;stroke-miterlimit:10;stroke-dasharray:none;stroke-opacity:1"
       transform="matrix(1.3333333,0,0,-1.3333333,1332.2552,576.00787)" /><path
       id="path41"
       d="M 0,0 26.008,-13.179 6.416,-19.59 Z"
       style="fill:#666666;fill-opacity:1;fill-rule:nonzero;stroke:none"
       transform="matrix(1.3333333,0,0,-1.3333333,1316.0951,564.89653)" /><path
       id="path42"
       d="M 0,0 157.841,45.667"
       style="fill:none;stroke:#666666;stroke-width:4;stroke-linecap:butt;stroke-linejoin:miter;stroke-miterlimit:10;stroke-dasharray:none;stroke-opacity:1"
       transform="matrix(1.3333333,0,0,-1.3333333,1214.914,375.73627)" /><path
       id="path43"
       d="m 0,0 8.104,-28.008 -18.052,9.953 z"
       style="fill:#666666;fill-opacity:1;fill-rule:nonzero;stroke:none"
       transform="matrix(1.3333333,0,0,-1.3333333,1212.0156,356.33987)" /><path
       id="path44"
       d="M 0,0 55.774,-76.856"
       style="fill:none;stroke:#666666;stroke-width:4;stroke-linecap:butt;stroke-linejoin:miter;stroke-miterlimit:10;stroke-dasharray:none;stroke-opacity:1"
       transform="matrix(1.3333333,0,0,-1.3333333,1180.3803,488.54227)" /><path
       id="path45"
       d="m 0,0 -23.598,-17.125 3.239,20.358 z"
       style="fill:#666666;fill-opacity:1;fill-rule:nonzero;stroke:none"
       transform="matrix(1.3333333,0,0,-1.3333333,1197.6432,479.23507)" /><path
       id="path46"
       d="M 0,0 -75.075,82.746"
       style="fill:none;stroke:#666666;stroke-width:4;stroke-linecap:butt;stroke-linejoin:miter;stroke-miterlimit:10;stroke-dasharray:none;stroke-opacity:1"
       transform="matrix(1.3333333,0,0,-1.3333333,1428.1107,809.99613)" /><path
       id="path47"
       d="M 0,0 21.594,19.592 20.59,-0.998 Z"
       style="fill:#666666;fill-opacity:1;fill-rule:nonzero;stroke:none"
       transform="matrix(1.3333333,0,0,-1.3333333,1411.9636,821.1276)" /><path
       id="path48"
       d="M 0,0 -87.197,-83.372"
       style="fill:none;stroke:#666666;stroke-width:4;stroke-linecap:butt;stroke-linejoin:miter;stroke-miterlimit:10;stroke-dasharray:none;stroke-opacity:1"
       transform="matrix(1.3333333,0,0,-1.3333333,1660.9323,711.2956)" /><path
       id="path49"
       d="M 0,0 -20.149,21.073 0.459,20.608 Z"
       style="fill:#666666;fill-opacity:1;fill-rule:nonzero;stroke:none"
       transform="matrix(1.3333333,0,0,-1.3333333,1672.4817,727.14587)" /><path
       id="path50"
       d="M 0,0 153.248,-45.055"
       style="fill:none;stroke:#666666;stroke-width:4;stroke-linecap:butt;stroke-linejoin:miter;stroke-miterlimit:10;stroke-dasharray:none;stroke-opacity:1"
       transform="matrix(1.3333333,0,0,-1.3333333,1572.6407,319.5944)" /><path
       id="path51"
       d="m 0,0 -8.224,-27.972 -9.871,18.097 z"
       style="fill:#666666;fill-opacity:1;fill-rule:nonzero;stroke:none"
       transform="matrix(1.3333333,0,0,-1.3333333,1580.6237,301.68093)" /><path
       id="path52"
       d="M 0,0 -96.268,163.268"
       style="fill:none;stroke:#666666;stroke-width:4;stroke-linecap:butt;stroke-linejoin:miter;stroke-miterlimit:10;stroke-dasharray:none;stroke-opacity:1"
       transform="matrix(1.3333333,0,0,-1.3333333,1667.9088,576.52213)" /><path
       id="path53"
       d="M 0,0 25.116,14.809 19.961,-5.15 Z"
       style="fill:#666666;fill-opacity:1;fill-rule:nonzero;stroke:none"
       transform="matrix(1.3333333,0,0,-1.3333333,1649.8412,584.14973)" /><path
       id="path54"
       d="M 0,0 H -205.314"
       style="fill:none;stroke:#666666;stroke-width:4;stroke-linecap:butt;stroke-linejoin:miter;stroke-miterlimit:10;stroke-dasharray:none;stroke-opacity:1"
       transform="matrix(1.3333333,0,0,-1.3333333,1629.0156,646.47787)" /><path
       id="path55"
       d="M 0,0 V 29.156 L 14.574,14.578 Z"
       style="fill:#666666;fill-opacity:1;fill-rule:nonzero;stroke:none"
       transform="matrix(1.3333333,0,0,-1.3333333,1626.4101,665.91533)" /><path
       id="path56"
       d="m 0,0 c 0,-27.157 -22.017,-49.173 -49.174,-49.173 -27.158,0 -49.174,22.016 -49.174,49.173 0,27.158 22.016,49.174 49.174,49.174 C -22.017,49.174 0,27.158 0,0"
       style="fill:#771c6d;fill-opacity:1;fill-rule:nonzero;stroke:none"
       transform="matrix(1.3333333,0,0,-1.3333333,1355.2631,646.47787)"
       clip-path="url(#clipPath57)" /><path
       id="path58"
       d="m 0,0 c 0,-27.157 -22.016,-49.173 -49.173,-49.173 -27.158,0 -49.174,22.016 -49.174,49.173 0,27.158 22.016,49.174 49.174,49.174 C -22.016,49.174 0,27.158 0,0"
       style="fill:#cf4446;fill-opacity:1;fill-rule:nonzero;stroke:none"
       transform="matrix(1.3333333,0,0,-1.3333333,1776.9713,646.47787)"
       clip-path="url(#clipPath59)" /><path
       id="path60"
       d="m 0,0 c 0,-27.157 -22.016,-49.173 -49.173,-49.173 -27.158,0 -49.174,22.016 -49.174,49.173 0,27.158 22.016,49.174 49.174,49.174 C -22.016,49.174 0,27.158 0,0"
       style="fill:#f4c500;fill-opacity:1;fill-rule:nonzero;stroke:none"
       transform="matrix(1.3333333,0,0,-1.3333333,1557.9415,862.00267)"
       clip-path="url(#clipPath61)" /><path
       id="path62"
       d="m 0,0 c 0,-27.158 -22.016,-49.174 -49.174,-49.174 -27.157,0 -49.173,22.016 -49.173,49.174 0,27.158 22.016,49.173 49.173,49.173 C -22.016,49.173 0,27.158 0,0"
       style="fill:#f4c500;fill-opacity:1;fill-rule:nonzero;stroke:none"
       transform="matrix(1.3333333,0,0,-1.3333333,1556.4973,314.8476)"
       clip-path="url(#clipPath63)" /><path
       id="path64"
       d="m 0,0 c 0,-27.158 -22.016,-49.173 -49.174,-49.173 -27.157,0 -49.173,22.015 -49.173,49.173 0,27.158 22.016,49.173 49.173,49.173 C -22.016,49.173 0,27.158 0,0"
       style="fill:#f4c500;fill-opacity:1;fill-rule:nonzero;stroke:none"
       transform="matrix(1.3333333,0,0,-1.3333333,1208.8085,415.29173)"
       clip-path="url(#clipPath65)" /><path
       id="path66"
       d="m 0,0 c 0,-27.158 -22.016,-49.173 -49.174,-49.173 -27.157,0 -49.173,22.015 -49.173,49.173 0,27.158 22.016,49.173 49.173,49.173 C -22.016,49.173 0,27.158 0,0"
       style="fill:#f4c500;fill-opacity:1;fill-rule:nonzero;stroke:none"
       transform="matrix(1.3333333,0,0,-1.3333333,1899.5091,415.29173)"
       clip-path="url(#clipPath67)" /><path
       id="path73"
       d="M 0,0 -0.6,-0.9 0.3,0 Z"
       style="fill:#dea449;fill-opacity:1;fill-rule:nonzero;stroke:none"
       transform="matrix(1.3333333,0,0,-1.3333333,2301.8624,695.83107)" /><path
       id="path74"
       d="M 0,0 -0.6,-0.9 0.301,0 Z"
       style="fill:#dea449;fill-opacity:1;fill-rule:nonzero;stroke:none"
       transform="matrix(1.3333333,0,0,-1.3333333,2567.0624,604.23027)" /><path
       id="path75"
       d="M 0,0 82.544,162.882"
       style="fill:none;stroke:#666666;stroke-width:4;stroke-linecap:butt;stroke-linejoin:miter;stroke-miterlimit:10;stroke-dasharray:none;stroke-opacity:1"
       transform="matrix(1.3333333,0,0,-1.3333333,2409.1843,574.93733)" /><path
       id="path76"
       d="M 0,0 26.008,-13.179 6.416,-19.59 Z"
       style="fill:#666666;fill-opacity:1;fill-rule:nonzero;stroke:none"
       transform="matrix(1.3333333,0,0,-1.3333333,2393.0241,563.826)" /><path
       id="path77"
       d="M 0,0 157.841,45.667"
       style="fill:none;stroke:#666666;stroke-width:4;stroke-linecap:butt;stroke-linejoin:miter;stroke-miterlimit:10;stroke-dasharray:none;stroke-opacity:1"
       transform="matrix(1.3333333,0,0,-1.3333333,2291.8432,374.66587)" /><path
       id="path78"
       d="m 0,0 8.104,-28.008 -18.052,9.953 z"
       style="fill:#666666;fill-opacity:1;fill-rule:nonzero;stroke:none"
       transform="matrix(1.3333333,0,0,-1.3333333,2288.9448,355.26933)" /><path
       id="path79"
       d="M 0,0 55.774,-76.856"
       style="fill:none;stroke:#666666;stroke-width:4;stroke-linecap:butt;stroke-linejoin:miter;stroke-miterlimit:10;stroke-dasharray:none;stroke-opacity:1"
       transform="matrix(1.3333333,0,0,-1.3333333,2257.3093,487.47187)" /><path
       id="path80"
       d="m 0,0 -23.598,-17.125 3.239,20.358 z"
       style="fill:#666666;fill-opacity:1;fill-rule:nonzero;stroke:none"
       transform="matrix(1.3333333,0,0,-1.3333333,2274.5724,478.16453)" /><path
       id="path81"
       d="M 0,0 -75.075,82.746"
       style="fill:none;stroke:#666666;stroke-width:4;stroke-linecap:butt;stroke-linejoin:miter;stroke-miterlimit:10;stroke-dasharray:none;stroke-opacity:1"
       transform="matrix(1.3333333,0,0,-1.3333333,2505.0397,808.9256)" /><path
       id="path82"
       d="M 0,0 21.594,19.592 20.59,-0.998 Z"
       style="fill:#666666;fill-opacity:1;fill-rule:nonzero;stroke:none"
       transform="matrix(1.3333333,0,0,-1.3333333,2488.8927,820.05707)" /><path
       id="path83"
       d="M 0,0 -87.197,-83.372"
       style="fill:none;stroke:#666666;stroke-width:4;stroke-linecap:butt;stroke-linejoin:miter;stroke-miterlimit:10;stroke-dasharray:none;stroke-opacity:1"
       transform="matrix(1.3333333,0,0,-1.3333333,2737.8615,710.22507)" /><path
       id="path84"
       d="M 0,0 -20.149,21.073 0.459,20.608 Z"
       style="fill:#666666;fill-opacity:1;fill-rule:nonzero;stroke:none"
       transform="matrix(1.3333333,0,0,-1.3333333,2749.4109,726.07533)" /><path
       id="path85"
       d="M 0,0 153.248,-45.055"
       style="fill:none;stroke:#666666;stroke-width:4;stroke-linecap:butt;stroke-linejoin:miter;stroke-miterlimit:10;stroke-dasharray:none;stroke-opacity:1"
       transform="matrix(1.3333333,0,0,-1.3333333,2649.5697,318.524)" /><path
       id="path86"
       d="m 0,0 -8.224,-27.973 -9.871,18.098 z"
       style="fill:#666666;fill-opacity:1;fill-rule:nonzero;stroke:none"
       transform="matrix(1.3333333,0,0,-1.3333333,2657.5528,300.61053)" /><path
       id="path87"
       d="M 0,0 -96.268,163.268"
       style="fill:none;stroke:#666666;stroke-width:4;stroke-linecap:butt;stroke-linejoin:miter;stroke-miterlimit:10;stroke-dasharray:none;stroke-opacity:1"
       transform="matrix(1.3333333,0,0,-1.3333333,2744.838,575.45173)" /><path
       id="path88"
       d="M 0,0 25.116,14.809 19.961,-5.15 Z"
       style="fill:#666666;fill-opacity:1;fill-rule:nonzero;stroke:none"
       transform="matrix(1.3333333,0,0,-1.3333333,2726.7703,583.07933)" /><path
       id="path89"
       d="M 0,0 H -205.314"
       style="fill:none;stroke:#666666;stroke-width:4;stroke-linecap:butt;stroke-linejoin:miter;stroke-miterlimit:10;stroke-dasharray:none;stroke-opacity:1"
       transform="matrix(1.3333333,0,0,-1.3333333,2705.9448,645.40747)" /><path
       id="path90"
       d="M 0,0 V 29.156 L 14.574,14.578 Z"
       style="fill:#666666;fill-opacity:1;fill-rule:nonzero;stroke:none"
       transform="matrix(1.3333333,0,0,-1.3333333,2703.3393,664.84493)" /><path
       id="path91"
       d="m 0,0 c 0,-27.157 -22.017,-49.173 -49.174,-49.173 -27.158,0 -49.174,22.016 -49.174,49.173 0,27.158 22.016,49.174 49.174,49.174 C -22.017,49.174 0,27.158 0,0"
       style="fill:#771c6d;fill-opacity:1;fill-rule:nonzero;stroke:none"
       transform="matrix(1.3333333,0,0,-1.3333333,2432.1921,645.40747)"
       clip-path="url(#clipPath92)" /><path
       id="path93"
       d="m 0,0 c 0,-27.157 -22.016,-49.173 -49.173,-49.173 -27.158,0 -49.174,22.016 -49.174,49.173 0,27.158 22.016,49.174 49.174,49.174 C -22.016,49.174 0,27.158 0,0"
       style="fill:#cf4446;fill-opacity:1;fill-rule:nonzero;stroke:none"
       transform="matrix(1.3333333,0,0,-1.3333333,2853.9005,645.40747)"
       clip-path="url(#clipPath94)" /><path
       id="path95"
       d="m 0,0 c 0,-27.157 -22.016,-49.173 -49.173,-49.173 -27.158,0 -49.174,22.016 -49.174,49.173 0,27.158 22.016,49.174 49.174,49.174 C -22.016,49.174 0,27.158 0,0"
       style="fill:#f4c500;fill-opacity:1;fill-rule:nonzero;stroke:none"
       transform="matrix(1.3333333,0,0,-1.3333333,2634.8705,860.93213)"
       clip-path="url(#clipPath96)" /><path
       id="path97"
       d="m 0,0 c 0,-27.158 -22.016,-49.174 -49.174,-49.174 -27.157,0 -49.173,22.016 -49.173,49.174 0,27.158 22.016,49.173 49.173,49.173 C -22.016,49.173 0,27.158 0,0"
       style="fill:#f4c500;fill-opacity:1;fill-rule:nonzero;stroke:none"
       transform="matrix(1.3333333,0,0,-1.3333333,2633.4265,313.7772)"
       clip-path="url(#clipPath98)" /><path
       id="path99"
       d="m 0,0 c 0,-27.158 -22.016,-49.173 -49.174,-49.173 -27.157,0 -49.173,22.015 -49.173,49.173 0,27.158 22.016,49.173 49.173,49.173 C -22.016,49.173 0,27.158 0,0"
       style="fill:#f4c500;fill-opacity:1;fill-rule:nonzero;stroke:none"
       transform="matrix(1.3333333,0,0,-1.3333333,2285.7377,414.2212)"
       clip-path="url(#clipPath100)" /><path
       id="path101"
       d="m 0,0 c 0,-27.158 -22.016,-49.173 -49.174,-49.173 -27.157,0 -49.173,22.015 -49.173,49.173 0,27.158 22.016,49.173 49.173,49.173 C -22.016,49.173 0,27.158 0,0"
       style="fill:#f4c500;fill-opacity:1;fill-rule:nonzero;stroke:none"
       transform="matrix(1.3333333,0,0,-1.3333333,2976.4383,414.2212)"
       clip-path="url(#clipPath102)" /><path
       id="path109"
       d="M 0,0 -0.553,-0.828 0.277,0 Z"
       style="fill:#dea449;fill-opacity:1;fill-rule:nonzero;stroke:none"
       transform="matrix(1.3333333,0,0,-1.3333333,3438.5443,682.07893)" /><path
       id="path110"
       d="M 0,0 -0.553,-0.829 0.276,0 Z"
       style="fill:#dea449;fill-opacity:1;fill-rule:nonzero;stroke:none"
       transform="matrix(1.3333333,0,0,-1.3333333,3682.7551,597.72853)" /></g></svg>
